<svg width="64" height="65" viewBox="0 0 64 65" xmlns="http://www.w3.org/2000/svg">
    <rect y="0.5" width="64" height="64" rx="32" fill="#10B981"/>
    <path d="M41.9042 37.0708C41.5319 36.6985 41.0578 36.4448 40.5415 36.3415L37.3589 35.7055C35.6144 35.3566 33.8034 35.5992 32.2122 36.3948L31.7882 36.6055C30.197 37.4011 28.386 37.6437 26.6415 37.2948L24.0669 36.7802C23.6365 36.6942 23.1915 36.7158 22.7714 36.843C22.3514 36.9702 21.9692 37.1992 21.6589 37.5095M26.6669 21.8335H37.3335L36.0002 23.1668V30.0628C36.0003 30.77 36.2814 31.4482 36.7815 31.9482L43.4482 38.6148C45.1282 40.2948 43.9375 43.1668 41.5615 43.1668H22.4375C20.0615 43.1668 18.8722 40.2948 20.5522 38.6148L27.2189 31.9482C27.6053 31.9995 27.998 31.9742 28.3747 31.8737C28.7514 31.7732 29.1045 31.5995 29.4141 31.3625C29.7236 31.1255 29.9834 30.8299 30.1787 30.4925C30.374 30.1551 30.5009 29.7826 30.5522 29.3962C30.6035 29.0097 30.5782 28.617 30.4777 28.2403C30.3772 27.8637 30.2035 27.5105 29.9665 27.201C29.7296 26.8914 29.4339 26.6316 29.0966 26.4363C28.7592 26.241 28.3866 26.1141 28.0002 26.0628V23.1668L26.6669 21.8335Z"
          fill="none" stroke="white" stroke-width="2.66667" stroke-linecap="round" stroke-linejoin="round"/>
</svg>
