<svg width="64" height="64" viewBox="0 0 64 64" xmlns="http://www.w3.org/2000/svg">
    <rect width="64" height="64" rx="32" fill="#06B6D4"/>
    <path d="M41.9042 36.5708C41.5319 36.1985 41.0578 35.9448 40.5415 35.8415L37.3589 35.2055C35.6144 34.8566 33.8034 35.0992 32.2122 35.8948L31.7882 36.1055C30.197 36.9011 28.386 37.1437 26.6415 36.7948L24.0669 36.2802C23.6365 36.1942 23.1915 36.2158 22.7714 36.343C22.3514 36.4702 21.9692 36.6992 21.6589 37.0095M26.6669 21.3335H37.3335L36.0002 22.6668V29.5628C36.0003 30.27 36.2814 30.9482 36.7815 31.4482L43.4482 38.1148C45.1282 39.7948 43.9375 42.6668 41.5615 42.6668H22.4375C20.0615 42.6668 18.8722 39.7948 20.5522 38.1148L27.2189 31.4482C27.6053 31.4995 27.998 31.4742 28.3747 31.3737C28.7514 31.2732 29.1045 31.0995 29.4141 30.8625C29.7236 30.6255 29.9834 30.3299 30.1787 29.9925C30.374 29.6551 30.5009 29.2826 30.5522 28.8962C30.6035 28.5097 30.5782 28.117 30.4777 27.7403C30.3772 27.3637 30.2035 27.0105 29.9665 26.701C29.7296 26.3914 29.4339 26.1316 29.0966 25.9363C28.7592 25.741 28.3866 25.6141 28.0002 25.5628V22.6668L26.6669 21.3335Z"
          fill="none" stroke="white" stroke-width="2.66667" stroke-linecap="round" stroke-linejoin="round"/>
</svg>
