<svg width="20" height="20" viewBox="0 0 20 20" fill="none" xmlns="http://www.w3.org/2000/svg">
<g opacity="0.62" clip-path="url(#clip0_37_7098)">
<path d="M7.49935 15.5417C3.33268 16.7292 3.33268 13.5626 1.66602 13.1667M13.3327 17.9167V14.853C13.3639 14.4755 13.3103 14.096 13.1752 13.7397C13.0401 13.3835 12.8268 13.0586 12.5493 12.7867C15.166 12.5096 17.916 11.5676 17.916 7.24505C17.9158 6.13975 17.4683 5.07683 16.666 4.2763C17.0459 3.30929 17.019 2.24041 16.591 1.29172C16.591 1.29172 15.6077 1.01464 13.3327 2.46339C11.4227 1.97162 9.40934 1.97162 7.49935 2.46339C5.22435 1.01464 4.24102 1.29172 4.24102 1.29172C3.813 2.24041 3.78614 3.30929 4.16602 4.2763C3.35779 5.08277 2.90978 6.15529 2.91602 7.2688C2.91602 11.5596 5.66602 12.5017 8.28268 12.8105C8.00851 13.0796 7.79707 13.4006 7.66211 13.7525C7.52714 14.1044 7.47169 14.4794 7.49935 14.853V17.9167" stroke="#1E1E1E" stroke-width="2" stroke-linecap="round" stroke-linejoin="round"/>
</g>
<defs>
<clipPath id="clip0_37_7098">
<rect width="20" height="19" fill="white" transform="translate(0 0.5)"/>
</clipPath>
</defs>
</svg>
