<svg width="21" height="20" viewBox="0 0 21 20" fill="none" xmlns="http://www.w3.org/2000/svg">
    <path d="M20.5 3.7977C19.7642 4.12437 18.9733 4.34437 18.1433 4.44354C18.9908 3.93603 19.6417 3.13187 19.9475 2.17354C19.155 2.64354 18.2767 2.9852 17.3417 3.16937C16.5942 2.37187 15.5267 1.87354 14.3467 1.87354C11.6975 1.87354 9.75083 4.3452 10.3492 6.91104C6.94 6.7402 3.91667 5.10687 1.8925 2.62437C0.8175 4.46854 1.335 6.88103 3.16167 8.1027C2.49 8.08103 1.85667 7.89687 1.30417 7.58937C1.25917 9.4902 2.62167 11.2685 4.595 11.6644C4.0175 11.821 3.385 11.8577 2.74167 11.7344C3.26333 13.3644 4.77833 14.5502 6.575 14.5835C4.85 15.936 2.67667 16.5402 0.5 16.2835C2.31583 17.4477 4.47333 18.1269 6.79 18.1269C14.4083 18.1269 18.7125 11.6927 18.4525 5.92187C19.2542 5.3427 19.95 4.6202 20.5 3.7977Z"
          fill="#6B7280"/>
</svg>
